<svg width="183" height="38" viewBox="0 0 183 38" fill="none" xmlns="http://www.w3.org/2000/svg">
<g filter="url(#filter0_dd_13001_399)">
<rect x="3.1" y="2.1" width="31.8" height="31.8" rx="7.9" fill="white"/>
<rect x="3.1" y="2.1" width="31.8" height="31.8" rx="7.9" fill="url(#paint0_linear_13001_399)"/>
<rect x="3.1" y="2.1" width="31.8" height="31.8" rx="7.9" stroke="#D0D5DD" stroke-width="0.2"/>
<path d="M18.3546 13.1828C22.7105 11.4504 27.4742 12.8185 29.6373 14.9133C30.106 15.3671 30.5041 15.8275 30.845 16.2852C31.0394 15.2107 31.0552 14.1405 30.8681 13.1055C30.1847 9.32649 26.6195 7.18561 23.4233 8.29149C20.2415 9.3924 19.0005 11.5321 19.0005 11.5321C19.0005 11.5321 17.7595 9.3924 14.5777 8.29149C11.3812 7.18561 7.81603 9.32672 7.1328 13.1055C6.62842 15.8944 7.58356 18.9392 9.61033 21.6298C10.0372 21.7732 10.4847 21.8809 10.9586 21.9431C13.7978 22.3163 14.8184 21.557 16.0178 21.0486C16.8142 20.7113 17.4134 21.0942 17.3843 21.3626C17.3392 21.7786 15.7693 22.4895 16.106 22.6388C17.4351 23.2285 19.0718 23.2334 20.3053 22.18C21.838 20.8712 22.4114 21.7659 22.4114 21.7659C22.4114 21.7659 21.6502 23.7076 19.3581 24.6717C17.4457 25.4761 15.4419 25.6743 13.6107 25.4683C15.19 26.5846 17.0035 27.5204 19.0005 28.1883C24.7099 26.2784 28.9276 22.1871 30.4145 17.9096C29.4072 16.9157 28.1716 16.2996 26.6988 16.0763C23.8674 15.6471 22.8322 16.3863 21.6228 16.8708C20.8198 17.1926 20.2285 16.7978 20.263 16.5299C20.3161 16.1148 21.8999 15.4351 21.5661 15.279C20.249 14.6633 18.6125 14.626 17.3585 15.6549C15.8003 16.9332 15.2446 16.0274 15.2446 16.0274C15.2446 16.0274 16.0438 14.1015 18.3546 13.1828ZM17.2709 18.5052H18.3709V17.4052H19.6296V18.5052H20.7296V19.7639H19.6296V20.8639H18.3709V19.7639H17.2709V18.5052Z" fill="url(#paint1_linear_13001_399)"/>
<path d="M17.2709 18.5052H18.3709V17.4052H19.6296V18.5052H20.7295V19.7639H19.6378C21.2597 20.5834 24.2383 21.8027 27.8177 22.3451C28.9956 20.9517 29.8813 19.4428 30.4143 17.9096C29.4069 16.9157 28.1713 16.2996 26.6986 16.0763C23.8672 15.647 22.8319 16.3863 21.6226 16.8708C20.8196 17.1926 20.2282 16.7978 20.2627 16.5299C20.3159 16.1148 21.8997 15.4351 21.5659 15.279C20.2488 14.6633 18.6123 14.626 17.3583 15.6548C15.8 16.9332 15.2443 16.0274 15.2443 16.0274C15.2443 16.0274 16.0438 14.1013 18.3543 13.1823C22.7102 11.4499 27.4739 12.818 29.637 14.9128C30.1057 15.3666 30.5038 15.8271 30.8447 16.2847C31.0392 15.2102 31.055 14.14 30.8679 13.105C30.1844 9.326 26.6192 7.18512 23.423 8.291C20.2412 9.39191 19.0002 11.5316 19.0002 11.5316C19.0002 11.5316 17.7592 9.39191 14.5774 8.291C12.7519 7.65927 10.8067 8.0883 9.34619 9.27521C10.0323 10.7442 10.836 12.1168 13.1254 14.8773C14.9868 17.1222 17.2709 18.5052 17.2709 18.5052Z" fill="url(#paint2_linear_13001_399)"/>
<path opacity="0.31" d="M27.277 9.64954C24.2712 8.13944 21.169 10.4892 20.1851 11.7299C21.882 11.3725 23.3668 11.1892 25.2457 11.5839C28.0252 12.1679 29.0654 13.1715 30.3064 14.6542C30.0871 11.9069 28.3519 10.1896 27.277 9.64954Z" fill="url(#paint3_linear_13001_399)"/>
</g>
<path d="M46.728 28V10.12H49.992V17.92H57.6V10.12H60.888V28H57.6V20.8H49.992V28H46.728ZM70.2576 28.288C68.9136 28.288 67.7376 27.984 66.7296 27.376C65.7216 26.768 64.9376 25.944 64.3776 24.904C63.8176 23.864 63.5376 22.712 63.5376 21.448C63.5376 20.136 63.8176 18.976 64.3776 17.968C64.9536 16.944 65.7296 16.136 66.7056 15.544C67.6976 14.952 68.8016 14.656 70.0176 14.656C71.0416 14.656 71.9376 14.824 72.7056 15.16C73.4896 15.496 74.1536 15.96 74.6976 16.552C75.2416 17.144 75.6576 17.824 75.9456 18.592C76.2336 19.344 76.3776 20.16 76.3776 21.04C76.3776 21.264 76.3616 21.496 76.3296 21.736C76.3136 21.976 76.2736 22.184 76.2096 22.36H66.1296V19.96H74.4336L72.9456 21.088C73.0896 20.352 73.0496 19.696 72.8256 19.12C72.6176 18.544 72.2656 18.088 71.7696 17.752C71.2896 17.416 70.7056 17.248 70.0176 17.248C69.3616 17.248 68.7776 17.416 68.2656 17.752C67.7536 18.072 67.3616 18.552 67.0896 19.192C66.8336 19.816 66.7376 20.576 66.8016 21.472C66.7376 22.272 66.8416 22.984 67.1136 23.608C67.4016 24.216 67.8176 24.688 68.3616 25.024C68.9216 25.36 69.5616 25.528 70.2816 25.528C71.0016 25.528 71.6096 25.376 72.1056 25.072C72.6176 24.768 73.0176 24.36 73.3056 23.848L75.8496 25.096C75.5936 25.72 75.1936 26.272 74.6496 26.752C74.1056 27.232 73.4576 27.608 72.7056 27.88C71.9696 28.152 71.1536 28.288 70.2576 28.288ZM82.674 28.288C81.762 28.288 80.97 28.136 80.298 27.832C79.626 27.528 79.106 27.096 78.738 26.536C78.37 25.96 78.186 25.296 78.186 24.544C78.186 23.824 78.346 23.184 78.666 22.624C78.986 22.048 79.482 21.568 80.154 21.184C80.826 20.8 81.674 20.528 82.698 20.368L86.97 19.672V22.072L83.298 22.696C82.674 22.808 82.21 23.008 81.906 23.296C81.602 23.584 81.45 23.96 81.45 24.424C81.45 24.872 81.618 25.232 81.954 25.504C82.306 25.76 82.738 25.888 83.25 25.888C83.906 25.888 84.482 25.752 84.978 25.48C85.49 25.192 85.882 24.8 86.154 24.304C86.442 23.808 86.586 23.264 86.586 22.672V19.312C86.586 18.752 86.362 18.288 85.914 17.92C85.482 17.536 84.906 17.344 84.186 17.344C83.514 17.344 82.914 17.528 82.386 17.896C81.874 18.248 81.498 18.72 81.258 19.312L78.69 18.064C78.946 17.376 79.346 16.784 79.89 16.288C80.45 15.776 81.106 15.376 81.858 15.088C82.61 14.8 83.426 14.656 84.306 14.656C85.378 14.656 86.322 14.856 87.138 15.256C87.954 15.64 88.586 16.184 89.034 16.888C89.498 17.576 89.73 18.384 89.73 19.312V28H86.754V25.768L87.426 25.72C87.09 26.28 86.69 26.752 86.226 27.136C85.762 27.504 85.234 27.792 84.642 28C84.05 28.192 83.394 28.288 82.674 28.288ZM92.6359 28V9.832H95.7799V28H92.6359ZM104.635 28.144C103.163 28.144 102.019 27.744 101.203 26.944C100.403 26.128 100.003 24.984 100.003 23.512V17.752H97.7468V14.944H97.9868C98.6268 14.944 99.1228 14.776 99.4748 14.44C99.8268 14.104 100.003 13.616 100.003 12.976V11.968H103.147V14.944H106.147V17.752H103.147V23.344C103.147 23.776 103.219 24.144 103.363 24.448C103.523 24.752 103.763 24.984 104.083 25.144C104.419 25.304 104.843 25.384 105.355 25.384C105.467 25.384 105.595 25.376 105.739 25.36C105.899 25.344 106.051 25.328 106.195 25.312V28C105.971 28.032 105.715 28.064 105.427 28.096C105.139 28.128 104.875 28.144 104.635 28.144ZM108.597 28V9.832H111.741V17.512L111.309 17.056C111.613 16.272 112.109 15.68 112.797 15.28C113.501 14.864 114.317 14.656 115.245 14.656C116.205 14.656 117.053 14.864 117.789 15.28C118.541 15.696 119.125 16.28 119.541 17.032C119.957 17.768 120.165 18.624 120.165 19.6V28H117.021V20.344C117.021 19.768 116.909 19.272 116.685 18.856C116.461 18.44 116.149 18.12 115.749 17.896C115.365 17.656 114.909 17.536 114.381 17.536C113.869 17.536 113.413 17.656 113.013 17.896C112.613 18.12 112.301 18.44 112.077 18.856C111.853 19.272 111.741 19.768 111.741 20.344V28H108.597ZM123.471 22.864V20.104H133.671V22.864H123.471ZM137.478 28V10.12H140.742V17.92H148.35V10.12H151.638V28H148.35V20.8H140.742V28H137.478ZM159.472 28.288C158.464 28.288 157.584 28.064 156.832 27.616C156.096 27.168 155.528 26.544 155.128 25.744C154.744 24.944 154.552 24.008 154.552 22.936V14.944H157.696V22.672C157.696 23.216 157.8 23.696 158.008 24.112C158.232 24.512 158.544 24.832 158.944 25.072C159.36 25.296 159.824 25.408 160.336 25.408C160.848 25.408 161.304 25.296 161.704 25.072C162.104 24.832 162.416 24.504 162.64 24.088C162.864 23.672 162.976 23.176 162.976 22.6V14.944H166.12V28H163.144V25.432L163.408 25.888C163.104 26.688 162.6 27.288 161.896 27.688C161.208 28.088 160.4 28.288 159.472 28.288ZM176.17 28.288C175.226 28.288 174.354 28.104 173.554 27.736C172.77 27.352 172.146 26.808 171.682 26.104L171.994 25.48V28H169.042V9.832H172.186V17.536L171.706 16.888C172.154 16.184 172.762 15.64 173.53 15.256C174.298 14.856 175.186 14.656 176.194 14.656C177.426 14.656 178.538 14.96 179.53 15.568C180.522 16.176 181.306 16.992 181.882 18.016C182.474 19.04 182.77 20.192 182.77 21.472C182.77 22.736 182.482 23.888 181.906 24.928C181.33 25.968 180.546 26.792 179.554 27.4C178.562 27.992 177.434 28.288 176.17 28.288ZM175.81 25.408C176.53 25.408 177.17 25.24 177.73 24.904C178.29 24.568 178.722 24.104 179.026 23.512C179.346 22.92 179.506 22.24 179.506 21.472C179.506 20.704 179.346 20.032 179.026 19.456C178.722 18.864 178.29 18.4 177.73 18.064C177.17 17.712 176.53 17.536 175.81 17.536C175.122 17.536 174.498 17.704 173.938 18.04C173.394 18.376 172.962 18.848 172.642 19.456C172.338 20.048 172.186 20.72 172.186 21.472C172.186 22.24 172.338 22.92 172.642 23.512C172.962 24.104 173.394 24.568 173.938 24.904C174.498 25.24 175.122 25.408 175.81 25.408Z" fill="white"/>
<defs>
<filter id="filter0_dd_13001_399" x="0" y="0" width="38" height="38" filterUnits="userSpaceOnUse" color-interpolation-filters="sRGB">
<feFlood flood-opacity="0" result="BackgroundImageFix"/>
<feColorMatrix in="SourceAlpha" type="matrix" values="0 0 0 0 0 0 0 0 0 0 0 0 0 0 0 0 0 0 127 0" result="hardAlpha"/>
<feOffset dy="1"/>
<feGaussianBlur stdDeviation="1"/>
<feColorMatrix type="matrix" values="0 0 0 0 0.0627451 0 0 0 0 0.0941176 0 0 0 0 0.156863 0 0 0 0.06 0"/>
<feBlend mode="normal" in2="BackgroundImageFix" result="effect1_dropShadow_13001_399"/>
<feColorMatrix in="SourceAlpha" type="matrix" values="0 0 0 0 0 0 0 0 0 0 0 0 0 0 0 0 0 0 127 0" result="hardAlpha"/>
<feOffset dy="1"/>
<feGaussianBlur stdDeviation="1.5"/>
<feColorMatrix type="matrix" values="0 0 0 0 0.0627451 0 0 0 0 0.0941176 0 0 0 0 0.156863 0 0 0 0.1 0"/>
<feBlend mode="normal" in2="effect1_dropShadow_13001_399" result="effect2_dropShadow_13001_399"/>
<feBlend mode="normal" in="SourceGraphic" in2="effect2_dropShadow_13001_399" result="shape"/>
</filter>
<linearGradient id="paint0_linear_13001_399" x1="19" y1="2" x2="19" y2="34" gradientUnits="userSpaceOnUse">
<stop stop-color="white"/>
<stop offset="1" stop-color="#D0D5DD"/>
</linearGradient>
<linearGradient id="paint1_linear_13001_399" x1="10.1989" y1="24.2137" x2="27.8347" y2="6.57791" gradientUnits="userSpaceOnUse">
<stop stop-color="#0076C1"/>
<stop offset="0.0737" stop-color="#0B82C6"/>
<stop offset="0.2766" stop-color="#269ED3"/>
<stop offset="0.4546" stop-color="#36AFDA"/>
<stop offset="0.587" stop-color="#3CB5DD"/>
</linearGradient>
<linearGradient id="paint2_linear_13001_399" x1="10.1388" y1="24.2537" x2="27.8274" y2="6.56509" gradientUnits="userSpaceOnUse">
<stop stop-color="#00A482"/>
<stop offset="1" stop-color="#79DD83"/>
</linearGradient>
<linearGradient id="paint3_linear_13001_399" x1="24.8608" y1="13.5073" x2="28.5288" y2="10.1132" gradientUnits="userSpaceOnUse">
<stop stop-color="#00A482"/>
<stop offset="1" stop-color="#79DD83"/>
</linearGradient>
</defs>
</svg>
